<svg width="18" height="17" viewBox="0 0 18 17" fill="none" xmlns="http://www.w3.org/2000/svg">
<g clip-path="url(#clip0_4247_6640)">
<path d="M1.72764 5.93871C1.95534 6.09046 2.64171 6.54115 3.78677 7.29056C4.93188 8.03997 5.8091 8.617 6.41849 9.02168C6.48544 9.06604 6.62768 9.16246 6.84528 9.31109C7.06292 9.45981 7.24375 9.58 7.38765 9.67167C7.53165 9.76331 7.70573 9.86612 7.91006 9.97992C8.11433 10.0936 8.30688 10.1792 8.48768 10.2358C8.66852 10.2929 8.83591 10.3211 8.9899 10.3211H9H9.01013C9.16412 10.3211 9.33159 10.2928 9.51242 10.2358C9.69315 10.1792 9.88588 10.0935 10.09 9.97992C10.2942 9.86599 10.4682 9.76328 10.6122 9.67167C10.7562 9.58 10.9369 9.45981 11.1546 9.31109C11.3722 9.16233 11.5146 9.06604 11.5816 9.02168C12.1975 8.617 13.7647 7.58924 16.2824 5.93851C16.7712 5.6161 17.1796 5.22708 17.5077 4.77169C17.836 4.31651 18 3.839 18 3.33943C18 2.92196 17.8409 2.5646 17.5228 2.26738C17.2047 1.97009 16.8279 1.82153 16.3928 1.82153H1.60708C1.09148 1.82153 0.694703 1.98594 0.416801 2.31476C0.138934 2.64365 0 3.05473 0 3.548C0 3.94643 0.184213 4.37818 0.552462 4.843C0.920676 5.30785 1.31253 5.67312 1.72764 5.93871Z" fill="white"/>
<path d="M16.9954 6.95372C14.7992 8.35761 13.1316 9.44867 11.9934 10.2267C11.6117 10.4922 11.302 10.6994 11.0642 10.848C10.8264 10.9966 10.5102 11.1484 10.115 11.3033C9.72 11.4584 9.35186 11.5357 9.01027 11.5357H9.00004H8.98994C8.64843 11.5357 8.28007 11.4584 7.88505 11.3033C7.49003 11.1484 7.17356 10.9966 6.93584 10.848C6.69819 10.6994 6.38844 10.4922 6.00679 10.2267C5.10272 9.60058 3.43868 8.50946 1.01461 6.95372C0.632818 6.71355 0.294649 6.43826 0 6.12842V13.6606C0 14.0782 0.157299 14.4354 0.472071 14.7327C0.786774 15.03 1.16519 15.1786 1.60718 15.1786H16.393C16.8348 15.1786 17.2132 15.03 17.528 14.7327C17.8428 14.4353 18 14.0783 18 13.6606V6.12842C17.712 6.43185 17.3773 6.70714 16.9954 6.95372Z" fill="white"/>
</g>
<defs>
<clipPath id="clip0_4247_6640">
<rect width="18" height="17" fill="white"/>
</clipPath>
</defs>
</svg>
