<svg width="15" height="21" viewBox="0 0 15 21" fill="none" xmlns="http://www.w3.org/2000/svg">
<path d="M7.76292 0.373474C4.00196 0.373474 0.942261 3.55132 0.942261 7.45703C0.942261 11.2166 7.13076 20.0003 7.39426 20.3723L7.64018 20.7198C7.6543 20.7399 7.67277 20.7562 7.6941 20.7674C7.71542 20.7787 7.739 20.7845 7.76292 20.7846C7.78695 20.7846 7.81065 20.7788 7.83211 20.7675C7.85356 20.7563 7.87216 20.7399 7.8864 20.7198L8.13217 20.3723C8.39582 20.0003 14.5842 11.2166 14.5842 7.45703C14.5842 3.55132 11.524 0.373474 7.76292 0.373474ZM7.76292 4.91971C9.11048 4.91971 10.2063 6.05769 10.2063 7.45703C10.2063 8.85565 9.11043 9.99435 7.76292 9.99435C6.41615 9.99435 5.31958 8.85565 5.31958 7.45703C5.31958 6.05769 6.4161 4.91971 7.76292 4.91971Z" fill="#024260"/>
</svg>
