<svg width="40" height="41" viewBox="0 0 40 41" fill="none" xmlns="http://www.w3.org/2000/svg">
<path d="M7.85911 29.7821C6.19607 27.9313 5.19824 25.9121 5.19824 22.5469C5.19824 16.6578 9.35585 11.4417 15.1765 8.74951L16.6732 10.9369C11.1852 13.9656 10.0211 17.8356 9.68846 20.3595C10.52 19.8547 11.6841 19.6865 12.8482 19.8547C15.8417 20.1913 18.17 22.5469 18.17 25.7439C18.17 27.2582 17.5048 28.7726 16.5069 29.9504C15.3428 31.1282 14.0124 31.633 12.3493 31.633C10.52 31.633 8.85694 30.7917 7.85911 29.7821ZM24.4895 29.7821C22.8265 27.9313 21.8287 25.9121 21.8287 22.5469C21.8287 16.6578 25.9863 11.4417 31.8069 8.74951L33.3037 10.9369C27.8156 13.9656 26.6515 17.8356 26.3189 20.3595C27.1504 19.8547 28.3146 19.6865 29.4787 19.8547C32.4722 20.1913 34.8004 22.5469 34.8004 25.7439C34.8004 27.2582 34.1352 28.7726 33.1374 29.9504C32.1395 31.1282 30.6428 31.633 28.9798 31.633C27.1504 31.633 25.4874 30.7917 24.4895 29.7821Z" fill="white"/>
</svg>
