<svg width="1403" height="1118" viewBox="0 0 1403 1118" fill="none" xmlns="http://www.w3.org/2000/svg">
<g opacity="0.35">
<path d="M1305.8 30.8999C1308.79 30.8999 1311.3 33.3999 1311.3 36.4999C1311.3 39.6999 1308.79 42.1999 1305.8 42.1999C1302.8 42.1999 1300.29 39.6999 1300.29 36.4999C1300.29 33.3999 1302.8 30.8999 1305.8 30.8999Z" fill="#2581D9"/>
<path d="M1336.11 30.8999C1339.2 30.8999 1341.62 33.3999 1341.62 36.4999C1341.62 39.6999 1339.2 42.1999 1336.11 42.1999C1333.12 42.1999 1330.71 39.6999 1330.71 36.4999C1330.71 33.3999 1333.12 30.8999 1336.11 30.8999Z" fill="#2581D9"/>
<path d="M1366.53 30.8999C1369.52 30.8999 1371.94 33.3999 1371.94 36.4999C1371.94 39.6999 1369.52 42.1999 1366.53 42.1999C1363.44 42.1999 1361.03 39.6999 1361.03 36.4999C1361.03 33.3999 1363.44 30.8999 1366.53 30.8999Z" fill="#2581D9"/>
<path d="M1396.85 30.8999C1399.84 30.8999 1402.35 33.3999 1402.35 36.4999C1402.35 39.6999 1399.84 42.1999 1396.85 42.1999C1393.85 42.1999 1391.44 39.6999 1391.44 36.4999C1391.44 33.3999 1393.85 30.8999 1396.85 30.8999Z" fill="#2581D9"/>
<path d="M1290.64 61.1001C1293.63 61.1001 1296.04 63.6001 1296.04 66.7001C1296.04 69.9001 1293.63 72.4001 1290.64 72.4001C1287.64 72.4001 1285.13 69.9001 1285.13 66.7001C1285.13 63.6001 1287.64 61.1001 1290.64 61.1001Z" fill="#2581D9"/>
<path d="M1320.96 61.1001C1323.95 61.1001 1326.46 63.6001 1326.46 66.7001C1326.46 69.9001 1323.95 72.4001 1320.96 72.4001C1317.96 72.4001 1315.55 69.9001 1315.55 66.7001C1315.55 63.6001 1317.96 61.1001 1320.96 61.1001Z" fill="#2581D9"/>
<path d="M1351.37 61.1001C1354.36 61.1001 1356.78 63.6001 1356.78 66.7001C1356.78 69.9001 1354.36 72.4001 1351.37 72.4001C1348.28 72.4001 1345.87 69.9001 1345.87 66.7001C1345.87 63.6001 1348.28 61.1001 1351.37 61.1001Z" fill="#2581D9"/>
<path d="M1381.69 61.1001C1384.68 61.1001 1387.19 63.6001 1387.19 66.7001C1387.19 69.9001 1384.68 72.4001 1381.69 72.4001C1378.69 72.4001 1376.18 69.9001 1376.18 66.7001C1376.18 63.6001 1378.69 61.1001 1381.69 61.1001Z" fill="#2581D9"/>
<path d="M1290.64 3C1293.63 3 1296.04 5.50001 1296.04 8.60001C1296.04 11.7 1293.63 14.3 1290.64 14.3C1287.64 14.3 1285.13 11.7 1285.13 8.60001C1285.13 5.50001 1287.64 3 1290.64 3Z" fill="#2581D9"/>
<path d="M1320.96 3C1323.95 3 1326.46 5.50001 1326.46 8.60001C1326.46 11.7 1323.95 14.3 1320.96 14.3C1317.96 14.3 1315.55 11.7 1315.55 8.60001C1315.55 5.50001 1317.96 3 1320.96 3Z" fill="#2581D9"/>
<path d="M1351.37 3C1354.36 3 1356.78 5.50001 1356.78 8.60001C1356.78 11.7 1354.36 14.3 1351.37 14.3C1348.28 14.3 1345.87 11.7 1345.87 8.60001C1345.87 5.50001 1348.28 3 1351.37 3Z" fill="#2581D9"/>
<path d="M1381.69 3C1384.68 3 1387.19 5.50001 1387.19 8.60001C1387.19 11.7 1384.68 14.3 1381.69 14.3C1378.69 14.3 1376.18 11.7 1376.18 8.60001C1376.18 5.50001 1378.69 3 1381.69 3Z" fill="#2581D9"/>
<path d="M27.4213 1075.9C30.4145 1075.9 32.9249 1078.4 32.9249 1081.5C32.9249 1084.7 30.4145 1087.2 27.4213 1087.2C24.4282 1087.2 21.9178 1084.7 21.9178 1081.5C21.9178 1078.4 24.4282 1075.9 27.4213 1075.9Z" fill="#2581D9"/>
<path d="M57.7393 1075.9C60.8291 1075.9 63.2429 1078.4 63.2429 1081.5C63.2429 1084.7 60.8291 1087.2 57.7393 1087.2C54.7462 1087.2 52.3323 1084.7 52.3323 1081.5C52.3323 1078.4 54.7462 1075.9 57.7393 1075.9Z" fill="#2581D9"/>
<path d="M88.1538 1075.9C91.147 1075.9 93.5608 1078.4 93.5608 1081.5C93.5608 1084.7 91.147 1087.2 88.1538 1087.2C85.0641 1087.2 82.6502 1084.7 82.6502 1081.5C82.6502 1078.4 85.0641 1075.9 88.1538 1075.9Z" fill="#2581D9"/>
<path d="M118.472 1075.9C121.465 1075.9 123.975 1078.4 123.975 1081.5C123.975 1084.7 121.465 1087.2 118.472 1087.2C115.479 1087.2 113.065 1084.7 113.065 1081.5C113.065 1078.4 115.479 1075.9 118.472 1075.9Z" fill="#2581D9"/>
<path d="M12.2624 1106.1C15.2556 1106.1 17.6694 1108.6 17.6694 1111.7C17.6694 1114.9 15.2556 1117.4 12.2624 1117.4C9.26925 1117.4 6.75877 1114.9 6.75877 1111.7C6.75877 1108.6 9.26925 1106.1 12.2624 1106.1Z" fill="#2581D9"/>
<path d="M42.5803 1106.1C45.5735 1106.1 48.0839 1108.6 48.0839 1111.7C48.0839 1114.9 45.5735 1117.4 42.5803 1117.4C39.5871 1117.4 37.1733 1114.9 37.1733 1111.7C37.1733 1108.6 39.5871 1106.1 42.5803 1106.1Z" fill="#2581D9"/>
<path d="M72.9948 1106.1C75.988 1106.1 78.4019 1108.6 78.4019 1111.7C78.4019 1114.9 75.988 1117.4 72.9948 1117.4C69.9051 1117.4 67.4913 1114.9 67.4913 1111.7C67.4913 1108.6 69.9051 1106.1 72.9948 1106.1Z" fill="#2581D9"/>
<path d="M103.313 1106.1C106.306 1106.1 108.816 1108.6 108.816 1111.7C108.816 1114.9 106.306 1117.4 103.313 1117.4C100.32 1117.4 97.8092 1114.9 97.8092 1111.7C97.8092 1108.6 100.32 1106.1 103.313 1106.1Z" fill="#2581D9"/>
<path d="M12.2624 1048C15.2556 1048 17.6694 1050.5 17.6694 1053.6C17.6694 1056.7 15.2556 1059.3 12.2624 1059.3C9.26925 1059.3 6.75877 1056.7 6.75877 1053.6C6.75877 1050.5 9.26925 1048 12.2624 1048Z" fill="#2581D9"/>
<path d="M42.5803 1048C45.5735 1048 48.0839 1050.5 48.0839 1053.6C48.0839 1056.7 45.5735 1059.3 42.5803 1059.3C39.5871 1059.3 37.1733 1056.7 37.1733 1053.6C37.1733 1050.5 39.5871 1048 42.5803 1048Z" fill="#2581D9"/>
<path d="M72.9948 1048C75.988 1048 78.4019 1050.5 78.4019 1053.6C78.4019 1056.7 75.988 1059.3 72.9948 1059.3C69.9051 1059.3 67.4913 1056.7 67.4913 1053.6C67.4913 1050.5 69.9051 1048 72.9948 1048Z" fill="#2581D9"/>
<path d="M103.313 1048C106.306 1048 108.816 1050.5 108.816 1053.6C108.816 1056.7 106.306 1059.3 103.313 1059.3C100.32 1059.3 97.8092 1056.7 97.8092 1053.6C97.8092 1050.5 100.32 1048 103.313 1048Z" fill="#2581D9"/>
<path opacity="0.9" d="M1285.29 1067L1290.16 1084.36L1304.94 1087.16L1290.16 1091.46L1285.29 1107.33L1281.69 1091.46L1265.82 1087.16L1281.69 1084.36L1285.29 1067Z" fill="#2581D9"/>
<path opacity="0.9" d="M1255.99 423.06L1259.24 435.009L1269.33 436.876L1259.24 439.676L1255.99 450.692L1253.47 439.676L1242.65 436.876L1253.47 435.009L1255.99 423.06Z" fill="#2581D9"/>
<path opacity="0.9" d="M19.1089 0L23.796 17.3637L38.2178 19.9776L23.796 24.0852L19.1089 39.7685L15.5035 24.0852L0 19.9776L15.5035 17.3637L19.1089 0Z" fill="#2581D9"/>
<path opacity="0.9" d="M51.9618 423L55.2067 435.136L65.302 436.816L55.2067 439.804L51.9618 450.633L49.438 439.804L38.6216 436.816L49.438 435.136L51.9618 423Z" fill="#2581D9"/>
</g>
</svg>
