<svg width="24" height="23" viewBox="0 0 24 23" fill="none" xmlns="http://www.w3.org/2000/svg">
<path d="M23.3022 9.17173L18.2411 14.1052L19.4363 21.0732C19.4883 21.3779 19.3632 21.6859 19.113 21.8679C18.9716 21.971 18.8034 22.023 18.6352 22.023C18.506 22.023 18.376 21.9922 18.2574 21.9296L11.9995 18.6398L5.74246 21.9288C5.46945 22.0734 5.13714 22.0499 4.88689 21.867C4.63664 21.685 4.51152 21.3771 4.56352 21.0724L5.75871 14.1044L0.69683 9.17173C0.47583 8.9556 0.395392 8.63223 0.491267 8.33891C0.587142 8.0456 0.841455 7.83029 1.14777 7.7856L8.14258 6.76998L11.2707 0.430852C11.5445 -0.124086 12.4545 -0.124086 12.7283 0.430852L15.8565 6.76998L22.8513 7.7856C23.1576 7.83029 23.4119 8.04479 23.5078 8.33891C23.6036 8.63304 23.5232 8.95479 23.3022 9.17173Z" fill="#2581D9"/>
</svg>
