<svg width="17" height="16" viewBox="0 0 17 16" fill="none" xmlns="http://www.w3.org/2000/svg">
<g clip-path="url(#clip0_45_12913)">
<path d="M0.766115 7.80457L4.40331 9.16208L5.81112 13.6896C5.9012 13.9796 6.25579 14.0868 6.49114 13.8943L8.51858 12.2415C8.7311 12.0684 9.0338 12.0597 9.2559 12.221L12.9127 14.8758C13.1644 15.0588 13.5211 14.9209 13.5843 14.6167L16.263 1.73127C16.332 1.39894 16.0054 1.1217 15.689 1.24409L0.761853 7.00253C0.393483 7.14459 0.396692 7.66613 0.766115 7.80457ZM5.58424 8.43944L12.6927 4.06135C12.8204 3.9829 12.9519 4.15564 12.8422 4.2574L6.97564 9.71061C6.76943 9.90256 6.63642 10.1594 6.59875 10.4383L6.39891 11.9192C6.37244 12.1169 6.09468 12.1366 6.04011 11.9452L5.27154 9.24464C5.18351 8.93662 5.31179 8.6076 5.58424 8.43944Z" fill="#36393B"/>
</g>
<defs>
<clipPath id="clip0_45_12913">
<rect width="15.7851" height="15.7851" fill="white" transform="translate(0.487305 0.193359)"/>
</clipPath>
</defs>
</svg>
