<svg width="11" height="12" viewBox="0 0 11 12" fill="none" xmlns="http://www.w3.org/2000/svg">
<g clip-path="url(#clip0_10_3808)">
<path d="M0.372458 5.86669L2.85856 6.79458L3.82083 9.88924C3.8824 10.0874 4.12477 10.1607 4.28564 10.0292L5.67143 8.89946C5.8167 8.7811 6.0236 8.7752 6.17541 8.88539L8.67489 10.7001C8.84698 10.8252 9.09079 10.7309 9.13394 10.5229L10.9649 1.71546C11.0121 1.48831 10.7889 1.29881 10.5726 1.38246L0.369545 5.31848C0.117755 5.41559 0.119949 5.77207 0.372458 5.86669ZM3.66575 6.30064L8.52452 3.30812C8.61184 3.2545 8.70168 3.37257 8.6267 3.44213L4.6168 7.16952C4.47586 7.30071 4.38494 7.4763 4.35919 7.66687L4.22259 8.67914C4.2045 8.81429 4.01465 8.82771 3.97735 8.6969L3.45201 6.85101C3.39184 6.64047 3.47953 6.41559 3.66575 6.30064Z" fill="#FFFCFC"/>
</g>
<defs>
<clipPath id="clip0_10_3808">
<rect width="10.7894" height="10.7894" fill="white" transform="translate(0.181641 0.664062)"/>
</clipPath>
</defs>
</svg>
