<svg width="17" height="17" viewBox="0 0 17 17" fill="none" xmlns="http://www.w3.org/2000/svg">
<g clip-path="url(#clip0_45_12920)">
<path d="M16.6174 3.31535C16.0063 3.58343 15.3551 3.76112 14.6762 3.84739C15.3746 3.43039 15.9077 2.77509 16.1583 1.98524C15.5071 2.37348 14.7881 2.64772 14.0219 2.80076C13.4036 2.14238 12.5223 1.73462 11.5609 1.73462C9.6957 1.73462 8.19406 3.24859 8.19406 5.10458C8.19406 5.37163 8.21666 5.62841 8.27212 5.87286C5.47118 5.73626 2.99275 4.39382 1.3278 2.34883C1.03713 2.85315 0.866625 3.43039 0.866625 4.05179C0.866625 5.21859 1.46749 6.2529 2.36313 6.85171C1.82184 6.84143 1.29082 6.68429 0.840947 6.43675C0.840947 6.44702 0.840947 6.46037 0.840947 6.47373C0.840947 8.11095 2.00878 9.47085 3.5402 9.78412C3.26596 9.8591 2.96707 9.89505 2.65689 9.89505C2.44119 9.89505 2.22344 9.88272 2.01905 9.83753C2.45557 11.1718 3.69427 12.1526 5.16715 12.1845C4.02089 13.0812 2.56547 13.6214 0.989879 13.6214C0.713585 13.6214 0.448589 13.6091 0.183594 13.5752C1.67599 14.5376 3.44468 15.0871 5.35204 15.0871C11.5517 15.0871 14.9412 9.95154 14.9412 5.50002C14.9412 5.35109 14.936 5.20729 14.9289 5.06453C15.5975 4.59 16.1593 3.99735 16.6174 3.31535Z" fill="#36393B"/>
</g>
<defs>
<clipPath id="clip0_45_12920">
<rect width="16.4338" height="16.4338" fill="white" transform="translate(0.183594 0.193359)"/>
</clipPath>
</defs>
</svg>
