<svg width="12" height="11" viewBox="0 0 12 11" fill="none" xmlns="http://www.w3.org/2000/svg">
<g clip-path="url(#clip0_10_3931)">
<path fill-rule="evenodd" clip-rule="evenodd" d="M10.402 10.4266H7.56521L7.37381 10.1484L4.90683 6.56389L4.5419 6.03432L1.47155 1.57397L0.779785 0.568359H3.61658L3.80796 0.845713L6.11761 4.20072L6.48257 4.73109L9.71024 9.42095L10.402 10.4266ZM9.18067 9.78427L6.04951 5.23472L5.68456 4.70433L3.27922 1.20984H2.0003L4.97415 5.53072L5.33908 6.06109L7.90176 9.78427H9.18067Z" fill="white"/>
<path d="M4.97427 5.53076L5.3392 6.06113L4.90695 6.56393L1.58683 10.4266H0.768555L4.54202 6.03437L4.97427 5.53076Z" fill="white"/>
<path d="M10.0606 0.568359L6.48256 4.73109L6.0495 5.23389L5.68457 4.70433L6.11763 4.20072L8.54164 1.37934L9.24231 0.568359H10.0606Z" fill="white"/>
</g>
<defs>
<clipPath id="clip0_10_3931">
<rect width="11" height="11" fill="white" transform="translate(0.0351562)"/>
</clipPath>
</defs>
</svg>
